<svg width="32" height="32" viewBox="0 0 32 32" xmlns="http://www.w3.org/2000/svg">
  <rect width="32" height="32" fill="transparent"/>
  <!-- Bird body -->
  <ellipse cx="16" cy="18" rx="8" ry="6" fill="#f87171"/>
  <!-- Bird head -->
  <circle cx="16" cy="10" r="5" fill="#f87171"/>
  <!-- Bird beak -->
  <path d="M21 9l4 1v2l-4 1z" fill="#ef4444"/>
  <!-- Bird eye -->
  <circle cx="18" cy="8" r="1.2" fill="white"/>
  <circle cx="18.5" cy="7.5" r="0.6" fill="black"/>
  <!-- Bird wing -->
  <ellipse cx="14" cy="16" rx="4" ry="3" fill="#ef4444"/>
  <!-- Bird tail -->
  <ellipse cx="8" cy="20" rx="3" ry="2" fill="#ef4444"/>
  <!-- Bird legs -->
  <line x1="14" y1="24" x2="14" y2="28" stroke="#ef4444" stroke-width="1.5"/>
  <line x1="18" y1="24" x2="18" y2="28" stroke="#ef4444" stroke-width="1.5"/>
  <!-- Bird feet -->
  <path d="M12 28l2 0m0 0l2 0m-2 0l0 2" stroke="#ef4444" stroke-width="1" fill="none"/>
  <path d="M16 28l2 0m0 0l2 0m-2 0l0 2" stroke="#ef4444" stroke-width="1" fill="none"/>
</svg>
